<?xml version="1.0" encoding="iso-8859-1"?>
<!-- Generator: Adobe Illustrator 19.0.0, SVG Export Plug-In . SVG Version: 6.00 Build 0)  -->
<svg version="1.1" id="Layer_1" xmlns="http://www.w3.org/2000/svg" xmlns:xlink="http://www.w3.org/1999/xlink" x="0px" y="0px"
	 viewBox="0 0 459.994 459.994" style="enable-background:new 0 0 459.994 459.994;" xml:space="preserve">
<g>
	<path style="fill:#FEE187;" d="M230.004,0c-127.025,0-230,102.975-230,230c0,115.601,85.285,211.283,196.369,227.559
		l261.349-260.09C441.918,85.849,345.986,0,230.004,0z"/>
	<path style="fill:#FFC61B;" d="M392.638,392.635c53.773-53.773,75.339-127.546,64.728-197.373L361.29,99.185L99.66,360.815
		l96.723,96.723C265.879,467.75,339.152,446.12,392.638,392.635z"/>
	<path style="fill:#D48B07;" d="M415.337,229.667c0,102.175-82.824,185-185,185l-129.5-185l129.5-185
		C332.512,44.667,415.337,127.491,415.337,229.667z"/>
	<path style="fill:#E0A300;" d="M45.337,229.667c0,102.175,82.825,185,185,185v-370C128.161,44.667,45.337,127.491,45.337,229.667z"
		/>
	<path style="fill:#FEE187;" d="M230.337,384.667l-96.875-155l96.875-155c85.468,0,155,69.532,155,155
		S315.804,384.667,230.337,384.667z"/>
	<path style="fill:#FFEDB5;" d="M75.337,229.667c0,85.468,69.532,155,155,155v-310C144.869,74.667,75.337,144.199,75.337,229.667z"
		/>
	<path style="fill:#FFEDB5;" d="M230.337,364.667l-84.375-135l84.375-135c74.44,0,135,60.56,135,135
		S304.776,364.667,230.337,364.667z"/>
	<path style="fill:#FFFFFF;" d="M95.337,229.667c0,74.439,60.56,135,135,135v-270C155.897,94.667,95.337,155.227,95.337,229.667z"/>
	<path style="fill:#FFC61B;" d="M247.477,224.594l-7.141-2.256v-77.282c15.475,4.37,26.853,18.608,26.853,35.462h20
		c0-27.936-20.259-51.213-46.853-55.954v-20.899h-20v20.899c-26.594,4.741-46.853,28.018-46.853,55.954
		c0,27.265,13.732,46.014,39.713,54.22l7.14,2.255v77.282c-15.475-4.37-26.853-18.608-26.853-35.462h-20
		c0,27.935,20.259,51.212,46.853,55.954v20.898h20v-20.898c26.594-4.741,46.853-28.018,46.853-55.954
		C287.189,251.55,273.457,232.801,247.477,224.594z M219.22,215.668c-17.559-5.546-25.736-16.715-25.736-35.149
		c0-16.854,11.378-31.092,26.853-35.462v70.964L219.22,215.668z M240.337,314.276v-70.964l1.117,0.353
		c17.558,5.546,25.735,16.715,25.735,35.149C267.189,295.669,255.811,309.906,240.337,314.276z"/>
</g>
<g>
</g>
<g>
</g>
<g>
</g>
<g>
</g>
<g>
</g>
<g>
</g>
<g>
</g>
<g>
</g>
<g>
</g>
<g>
</g>
<g>
</g>
<g>
</g>
<g>
</g>
<g>
</g>
<g>
</g>
</svg>
