<?xml version="1.0" encoding="iso-8859-1"?>
<!-- Generator: Adobe Illustrator 19.0.0, SVG Export Plug-In . SVG Version: 6.00 Build 0)  -->
<svg version="1.1" id="Layer_1" xmlns="http://www.w3.org/2000/svg" xmlns:xlink="http://www.w3.org/1999/xlink" x="0px" y="0px"
	 viewBox="0 0 460 460" style="enable-background:new 0 0 460 460;" xml:space="preserve">
<g>
	<path style="fill:#FF5419;" d="M230,0C102.974,0,0,102.974,0,230c0,101.638,65.927,187.878,157.35,218.291l290.261-292.95
		C416.611,64.962,330.892,0,230,0z"/>
	<path style="fill:#E03A00;" d="M460,230c0-26.134-4.368-51.246-12.398-74.657l-99.177-99.177l-236.184,347l45.113,45.113
		C180.19,455.876,204.612,460,230,460C357.025,460,460,357.025,460,230z"/>
	<polygon style="fill:#C2FBFF;" points="309.061,83.157 269.684,56.167 230.333,83.157 198.113,245.77 230.333,376.176 
		269.684,403.167 309.061,376.176 348.425,403.167 348.425,56.167 	"/>
	<polygon style="fill:#FFFFFF;" points="190.969,56.167 151.605,83.157 112.241,56.167 112.241,403.167 151.605,376.176 
		190.969,403.167 230.333,376.176 230.333,83.157 	"/>
	<rect x="288.425" y="234.667" style="fill:#121149;" width="30" height="20"/>
	<rect x="288.425" y="194.667" style="fill:#121149;" width="30" height="20"/>
	<rect x="288.425" y="314.667" style="fill:#121149;" width="30" height="20"/>
	<rect x="288.425" y="274.667" style="fill:#121149;" width="30" height="20"/>
	<rect x="142.241" y="274.667" style="fill:#366796;" width="88.092" height="20"/>
	<rect x="142.241" y="234.667" style="fill:#366796;" width="88.092" height="20"/>
	<rect x="142.241" y="194.667" style="fill:#366796;" width="88.092" height="20"/>
	<polygon style="fill:#5488A8;" points="230.333,124.667 210.333,144.667 230.333,164.667 318.425,164.667 318.425,124.667 	"/>
	<rect x="142.241" y="124.667" style="fill:#71E2F0;" width="88.092" height="40"/>
	<rect x="142.241" y="314.667" style="fill:#366796;" width="88.092" height="20"/>
</g>
<g>
</g>
<g>
</g>
<g>
</g>
<g>
</g>
<g>
</g>
<g>
</g>
<g>
</g>
<g>
</g>
<g>
</g>
<g>
</g>
<g>
</g>
<g>
</g>
<g>
</g>
<g>
</g>
<g>
</g>
</svg>
