<?xml version="1.0" encoding="iso-8859-1"?>
<!-- Generator: Adobe Illustrator 19.0.0, SVG Export Plug-In . SVG Version: 6.00 Build 0)  -->
<svg version="1.1" id="Layer_1" xmlns="http://www.w3.org/2000/svg" xmlns:xlink="http://www.w3.org/1999/xlink" x="0px" y="0px"
	 viewBox="0 0 460 460" style="enable-background:new 0 0 460 460;" xml:space="preserve">
<g>
	<path style="fill:#71E2F0;" d="M230,0C102.974,0,0,102.975,0,230c0,104.881,70.201,193.366,166.179,221.03L451.93,169.388
		C425.331,71.77,336.047,0,230,0z"/>
	<path style="fill:#38C6D9;" d="M460,230c0-20.979-2.825-41.296-8.087-60.607L376.76,94.24l-15.188,18.192L303.38,54.24
		L92.92,377.76l73.261,73.261C186.445,456.862,207.855,460,230,460C357.026,460,460,357.025,460,230z"/>
	<rect x="156.62" y="54.24" style="fill:#FFFFFF;" width="146.76" height="60"/>
	<polygon style="fill:#FFC61B;" points="367.08,206.49 367.08,377.76 303.38,377.76 287.08,258.38 210,258.38 230,151.65 	"/>
	<polygon style="fill:#FFEDB5;" points="230,151.65 230,258.38 172.92,258.38 156.62,377.76 92.92,377.76 92.92,206.49 	"/>
	<polygon style="fill:#C2001B;" points="376.76,94.24 376.76,181.65 340.07,191.65 303.38,181.65 283.38,132.945 303.38,94.24 	"/>
	<polygon style="fill:#FF0F27;" points="303.38,94.24 303.38,181.65 266.69,191.65 230,181.65 210,132.945 230,94.24 	"/>
	<polygon style="fill:#C2001B;" points="230,94.24 230,181.65 193.31,191.65 156.62,181.65 136.62,132.945 156.62,94.24 	"/>
	<polygon style="fill:#FF0F27;" points="156.62,94.24 156.62,181.65 119.93,191.65 83.24,181.65 83.24,94.24 	"/>
	<path style="fill:#940030;" d="M156.62,181.65H230c0,20.26-16.43,36.73-36.69,36.73S156.62,201.91,156.62,181.65z"/>
	<path style="fill:#940030;" d="M303.38,181.65h73.38c0,9.57-3.67,18.3-9.68,24.84c-6.7,7.31-16.32,11.89-27.01,11.89
		C319.81,218.38,303.38,201.91,303.38,181.65z"/>
	<path style="fill:#C2001B;" d="M83.24,181.65h73.38c0,20.26-16.43,36.73-36.69,36.73c-10.69,0-20.31-4.58-27.01-11.89
		C86.91,199.95,83.24,191.22,83.24,181.65z"/>
	<path style="fill:#C2001B;" d="M230,181.65h73.38c0,20.26-16.43,36.73-36.69,36.73S230,201.91,230,181.65z"/>
	<polygon style="fill:#FFEDB5;" points="303.38,248.38 303.38,377.76 230,377.76 210,303.07 230,248.38 	"/>
	<rect x="156.62" y="248.38" style="fill:#FFFFFF;" width="73.38" height="129.38"/>
</g>
<g>
</g>
<g>
</g>
<g>
</g>
<g>
</g>
<g>
</g>
<g>
</g>
<g>
</g>
<g>
</g>
<g>
</g>
<g>
</g>
<g>
</g>
<g>
</g>
<g>
</g>
<g>
</g>
<g>
</g>
</svg>
