<?xml version="1.0" encoding="iso-8859-1"?>
<!-- Generator: Adobe Illustrator 19.0.0, SVG Export Plug-In . SVG Version: 6.00 Build 0)  -->
<svg version="1.1" id="Layer_1" xmlns="http://www.w3.org/2000/svg" xmlns:xlink="http://www.w3.org/1999/xlink" x="0px" y="0px"
	 viewBox="0 0 512 512" style="enable-background:new 0 0 512 512;" xml:space="preserve">
<circle style="fill:#273B7A;" cx="256" cy="256" r="256"/>
<path style="fill:#121149;" d="M304.752,507.344c114.907-22.157,202.435-121.135,207.038-241.385L399.563,153.733l-47.599,59.001
	L202.842,236.18l-59.318-59.318l-19.463,10.988l54.074,54.074L49.931,252.523L304.752,507.344z"/>
<path style="fill:#FFEDB5;" d="M131.036,180.874l14.72,5.584c9.037,3.427,18.694,4.918,28.344,4.377l72.607-4.079l134.066,117.65
	c5.172,4.539,4.858,12.685-0.646,16.813l-2.236,1.676c-3.943,2.956-9.383,2.881-13.241-0.184l-95.661-75.991
	c-1.526-1.212-3.718-1.088-5.098,0.291l-1.458,1.458c-1.6,1.6-1.474,4.232,0.272,5.672l76.436,62.997
	c5.042,4.156,5.287,11.797,0.519,16.267l0,0c-3.863,3.622-9.778,3.92-13.986,0.707l-80.951-61.802
	c-1.633-1.246-3.958-0.984-5.273,0.593l0,0c-1.391,1.67-1.119,4.163,0.603,5.491l64.872,50.055
	c5.701,4.399,5.604,13.031-0.191,17.303l-0.586,0.431c-3.843,2.832-9.087,2.815-12.91-0.041l-66.127-49.381
	c-1.633-1.221-3.936-0.948-5.241,0.617l-0.007,0.009c-1.398,1.679-1.115,4.184,0.624,5.508l44.863,34.126
	c5.017,3.815,5.73,11.09,1.552,15.808l-1.583,1.788c-3.415,3.856-9.075,4.775-13.534,2.196L89.864,263.215L131.036,180.874z"/>
<path style="fill:#FEE187;" d="M89.865,263.216l161.921,93.596c4.46,2.577,10.119,1.66,13.534-2.196l1.583-1.788
	c4.179-4.718,3.465-11.993-1.552-15.808l-44.863-34.126c-1.739-1.322-2.022-3.829-0.624-5.508l0.007-0.009
	c1.305-1.565,3.606-1.838,5.241-0.617l66.127,49.381c3.825,2.857,9.068,2.874,12.91,0.041l0.586-0.431
	c0.105-0.078,0.195-0.167,0.297-0.247L120.16,202.628L89.865,263.216z"/>
<path style="fill:#FFC61B;" d="M390.808,174.013l44.111,81.361l-62.736,41.662l-102.928-89.695l-64.424,24.91
	c-5.587,2.16-11.912,1.024-16.4-2.944l0,0c-8.613-7.618-6.637-21.559,3.753-26.486l85.685-40.627
	c3.853-1.827,8.325-1.82,12.173,0.017l50.853,24.288c5.603,2.676,12.033,3.041,17.903,1.017L390.808,174.013z"/>
<polygon style="fill:#EAA22F;" points="330.733,260.915 372.183,297.036 434.919,255.374 411.393,211.98 "/>
<rect x="73.192" y="159.309" transform="matrix(-0.8827 -0.47 0.47 -0.8827 81.1817 449.6475)" style="fill:#FF7F4F;" width="47.047" height="110.764"/>
<g>
	<polygon style="fill:#D35933;" points="49.931,252.523 91.464,274.637 117.763,225.242 77.112,201.476 	"/>
	
		<rect x="387.872" y="157.36" transform="matrix(0.8256 -0.5643 0.5643 0.8256 -48.2914 269.2509)" style="fill:#D35933;" width="47.047" height="110.764"/>
</g>
<polygon style="fill:#B54324;" points="462.069,245.182 431.173,199.98 390.885,224.422 423.222,271.734 "/>
<g>
</g>
<g>
</g>
<g>
</g>
<g>
</g>
<g>
</g>
<g>
</g>
<g>
</g>
<g>
</g>
<g>
</g>
<g>
</g>
<g>
</g>
<g>
</g>
<g>
</g>
<g>
</g>
<g>
</g>
</svg>
