<?xml version="1.0" encoding="iso-8859-1"?>
<!-- Generator: Adobe Illustrator 19.0.0, SVG Export Plug-In . SVG Version: 6.00 Build 0)  -->
<svg version="1.1" id="Layer_1" xmlns="http://www.w3.org/2000/svg" xmlns:xlink="http://www.w3.org/1999/xlink" x="0px" y="0px"
	 viewBox="0 0 460 460" style="enable-background:new 0 0 460 460;" xml:space="preserve">
<g>
	<path style="fill:#FFAD9E;" d="M230,0C102.974,0,0,102.974,0,230c0,97.285,60.4,180.462,145.746,214.079L459.78,219.848
		C454.467,97.533,353.624,0,230,0z"/>
	<path style="fill:#FF6161;" d="M460,230c0-3.403-0.089-6.785-0.235-10.152L354.458,114.542l-34.126,34.124l-99.999-99.999l-150,320
		l75.409,75.409C171.835,454.354,200.258,460,230,460C357.025,460,460,357.025,460,230z"/>
	<polygon style="fill:#366796;" points="390.333,288.667 390.333,368.667 230.333,368.667 210.333,268.667 	"/>
	<polygon style="fill:#61A2B3;" points="230.333,268.667 230.333,368.667 70.333,368.667 70.333,288.667 	"/>
	<polygon style="fill:#121149;" points="360.333,188.667 390.333,288.667 230.333,288.667 210.333,168.667 	"/>
	<polygon style="fill:#273B7A;" points="230.333,168.667 230.333,288.667 70.333,288.667 100.333,188.667 	"/>
	<rect x="220.333" y="208.667" style="fill:#61A2B3;" width="20" height="20"/>
	<rect x="220.333" y="248.667" style="fill:#61A2B3;" width="20" height="20"/>
	<rect x="260.333" y="208.667" style="fill:#61A2B3;" width="20" height="20"/>
	<rect x="260.333" y="248.667" style="fill:#61A2B3;" width="20" height="20"/>
	<rect x="300.333" y="248.667" style="fill:#61A2B3;" width="20" height="20"/>
	<rect x="300.333" y="208.667" style="fill:#61A2B3;" width="20" height="20"/>
	<rect x="140.333" y="208.667" style="fill:#C2FBFF;" width="20" height="20"/>
	<rect x="140.333" y="248.667" style="fill:#C2FBFF;" width="20" height="20"/>
	<rect x="180.333" y="248.667" style="fill:#C2FBFF;" width="20" height="20"/>
	<rect x="180.333" y="208.667" style="fill:#C2FBFF;" width="20" height="20"/>
	<path style="fill:#366796;" d="M340.333,108.667h-220c-11,0-20,9-20,20v60h260v-60
		C360.333,117.667,351.333,108.667,340.333,108.667z"/>
	<polygon style="fill:#61A2B3;" points="220.333,148.667 170.328,128.667 120.333,148.667 120.333,168.667 220.333,168.667 	"/>
	<polygon style="fill:#C2FBFF;" points="220.333,48.667 220.333,148.667 170.328,148.667 147.606,112.303 170.328,60.094 
		186.994,48.667 203.667,60.094 	"/>
	<polygon style="fill:#FFFFFF;" points="170.328,60.094 170.328,148.667 120.333,148.667 120.333,48.667 137,60.094 153.667,48.667 
			"/>
	<rect x="240.333" y="128.667" style="fill:#121149;" width="100" height="40"/>
	<polygon style="fill:#121149;" points="370.333,308.667 370.333,348.667 230.333,348.667 210.333,328.667 230.333,308.667 	"/>
	<rect x="90.333" y="308.667" style="fill:#273B7A;" width="140" height="40"/>
</g>
<g>
</g>
<g>
</g>
<g>
</g>
<g>
</g>
<g>
</g>
<g>
</g>
<g>
</g>
<g>
</g>
<g>
</g>
<g>
</g>
<g>
</g>
<g>
</g>
<g>
</g>
<g>
</g>
<g>
</g>
</svg>
