<?xml version="1.0" encoding="iso-8859-1"?>
<!-- Generator: Adobe Illustrator 19.0.0, SVG Export Plug-In . SVG Version: 6.00 Build 0)  -->
<svg version="1.1" id="Layer_1" xmlns="http://www.w3.org/2000/svg" xmlns:xlink="http://www.w3.org/1999/xlink" x="0px" y="0px"
	 viewBox="0 0 512 512" style="enable-background:new 0 0 512 512;" xml:space="preserve">
<circle style="fill:#324A5E;" cx="256" cy="256" r="256"/>
<path style="fill:#2B3B4E;" d="M511.748,267.016l-97.692-97.692L328.278,299.98L198.503,170.205L90.384,265.647l-14.572,9.793
	l74.5,74.5l-24.736,92.258l59.985,59.983C207.938,508.573,231.569,512,256,512C393.694,512,505.977,403.289,511.748,267.016z"/>
<path style="fill:#FED8B2;" d="M381.03,322.779v-21.62h-38.99v21.62c0,1.726-1.398,3.124-3.124,3.124h-26.867v74.604h98.971v-74.604
	h-26.865C382.43,325.903,381.03,324.505,381.03,322.779z"/>
<path style="fill:#EABE96;" d="M411.022,325.903h-26.867c-1.726,0-3.124-1.398-3.124-3.124v-21.62h-20.387v99.347h50.378
	L411.022,325.903L411.022,325.903z"/>
<circle style="fill:#FED8B2;" cx="296.736" cy="255.862" r="15.584"/>
<circle style="fill:#EABE96;" cx="423.012" cy="255.862" r="15.584"/>
<path style="fill:#F4E3C3;" d="M361.631,320.748h-3.512c-32.477,0-58.804-26.327-58.804-58.804v-53.689
	c0-32.477,26.328-58.804,58.804-58.804h3.512c32.477,0,58.804,26.327,58.804,58.804v53.689
	C420.435,294.421,394.107,320.748,361.631,320.748z"/>
<path style="fill:#FED8B2;" d="M361.631,149.452h-0.988V320.75h0.988c32.477,0,58.804-26.327,58.804-58.804v-53.689
	C420.435,175.78,394.107,149.452,361.631,149.452z"/>
<path style="fill:#F9B54C;" d="M414.058,169.324c-11.548-16.451-30.649-27.214-52.276-27.214h-3.813
	c-35.261,0-63.845,28.584-63.845,63.845v4.937v44.972h9.373V229.49c-0.002,0-0.003,0-0.005,0
	c28.443-2.889,56.411-8.47,80.924-20.725c8.821,10.13,19.008,19.175,30.253,26.514v20.585h10.957v-33.621v-16.289
	C425.625,192.321,421.338,179.695,414.058,169.324z"/>
<path style="fill:#F4A200;" d="M414.058,169.324c-11.548-16.451-30.649-27.214-52.276-27.214h-1.138v76.267
	c8.197-2.639,16.151-5.803,23.771-9.611c8.821,10.13,19.008,19.175,30.253,26.514v20.585h10.957v-33.621v-16.289
	C425.625,192.321,421.338,179.695,414.058,169.324z"/>
<circle style="fill:#59595B;" cx="331.317" cy="248.949" r="6.056"/>
<circle style="fill:#272525;" cx="388.43" cy="248.949" r="6.056"/>
<path style="fill:#84DBFF;" d="M460.509,409.996V371.14c0-24.985-20.252-45.237-45.237-45.237h-20.744
	c0,18.22-32.99,35.914-32.99,35.914s-32.99-17.694-32.99-35.914h-20.744c-24.983,0-45.237,20.254-45.237,45.237v140.778
	C343.452,509.881,415.011,470.319,460.509,409.996z"/>
<path style="fill:#31BAFD;" d="M415.272,325.903h-20.744c0,18.22-32.99,35.914-32.99,35.914s-0.133-0.071-0.378-0.207v127.848
	c39.448-17.799,73.581-45.296,99.349-79.462V371.14C460.509,346.155,440.254,325.903,415.272,325.903z"/>
<path style="fill:#FD8469;" d="M359.874,298.575c-10.911,0-19.787-8.876-19.787-19.787c0-1.85,1.5-3.35,3.35-3.35
	c1.85,0,3.35,1.5,3.35,3.35c0,7.216,5.872,13.09,13.09,13.09s13.09-5.872,13.09-13.09c0-1.85,1.5-3.35,3.35-3.35
	c1.85,0,3.35,1.5,3.35,3.35C379.661,289.701,370.786,298.575,359.874,298.575z"/>
<path style="fill:#FC6F58;" d="M379.661,278.79c0-1.85-1.5-3.35-3.35-3.35c-1.85,0-3.35,1.5-3.35,3.35
	c0,6.958-5.461,12.648-12.321,13.05v6.697C371.197,298.129,379.661,289.44,379.661,278.79z"/>
<polygon style="fill:#935635;" points="84.585,260.441 84.585,349.136 150.659,344.81 150.659,256.116 "/>
<polygon style="fill:#804000;" points="216.748,251.788 150.659,256.116 150.659,344.81 216.748,340.485 "/>
<path style="fill:#FED8B2;" d="M170.343,332.145v-21.688h-39.115v21.688c0,1.731-1.403,3.134-3.134,3.134h-26.955v74.845h99.294
	v-74.845h-26.955C171.746,335.279,170.343,333.876,170.343,332.145z"/>
<path style="fill:#EABE96;" d="M200.432,335.279h-26.955c-1.731,0-3.134-1.403-3.134-3.134v-21.688h-19.684v99.669h49.773V335.279z"
	/>
<circle style="fill:#FED8B2;" cx="87.435" cy="265.016" r="15.636"/>
<circle style="fill:#EABE96;" cx="214.144" cy="265.016" r="15.636"/>
<path style="fill:#F4E3C3;" d="M152.547,330.109h-3.524c-32.582,0-58.994-26.412-58.994-58.994v-53.863
	c0-32.582,26.412-58.994,58.994-58.994h3.524c32.582,0,58.994,26.412,58.994,58.994v53.863
	C211.54,303.695,185.129,330.109,152.547,330.109z"/>
<path style="fill:#FED8B2;" d="M152.547,158.256h-1.888v171.853h1.888c32.582,0,58.994-26.412,58.994-58.994v-53.863
	C211.54,184.668,185.129,158.256,152.547,158.256z"/>
<path style="fill:#B97850;" d="M205.143,178.193c-11.586-16.505-30.749-27.301-52.445-27.301h-3.825
	c-35.375,0-64.286,28.677-64.286,64.052v4.953v85.209h9.638v-66.551c-0.002,0-0.003,0-0.005,0
	c28.536-2.9,56.594-8.497,81.186-20.792c8.851,10.162,19.07,19.237,30.351,26.6v60.744h10.993v-73.821v-16.341
	C216.748,201.264,212.447,188.597,205.143,178.193z"/>
<path style="fill:#935635;" d="M205.143,178.193c-11.586-16.505-30.749-27.301-52.445-27.301h-2.038v76.793
	c8.54-2.705,16.824-5.961,24.745-9.921c8.851,10.162,19.07,19.237,30.351,26.6v60.744h10.993v-73.821v-16.341
	C216.748,201.264,212.447,188.597,205.143,178.193z"/>
<circle style="fill:#59595B;" cx="122.142" cy="258.069" r="6.075"/>
<circle style="fill:#272525;" cx="179.424" cy="258.069" r="6.075"/>
<path style="fill:#FD8469;" d="M150.785,307.864c-10.947,0-19.851-8.904-19.851-19.851c0-1.855,1.503-3.36,3.36-3.36
	c1.855,0,3.36,1.503,3.36,3.36c0,7.24,5.891,13.131,13.131,13.131s13.131-5.891,13.131-13.131c0-1.855,1.503-3.36,3.36-3.36
	c1.855,0,3.36,1.503,3.36,3.36C170.636,298.96,161.73,307.864,150.785,307.864z"/>
<path style="fill:#FC6F58;" d="M167.276,284.653c-1.855,0-3.36,1.503-3.36,3.36c0,7.24-5.891,13.131-13.131,13.131
	c-0.043,0-0.083-0.005-0.126-0.007v6.72c0.043,0,0.083,0.007,0.126,0.007c10.945,0,19.849-8.904,19.849-19.851
	C170.636,286.158,169.131,284.653,167.276,284.653z"/>
<path style="fill:#FD8469;" d="M204.693,335.279h-20.811c0,18.28-14.819,58.204-33.097,58.204c-18.28,0-33.097-39.924-33.097-58.204
	H96.875c-25.064,0-45.384,20.32-45.384,45.384v29.334c39.308,52.119,98.068,88.741,165.495,99.05
	c11.54-3.946,22.611-8.904,33.09-14.793V380.663C250.078,355.599,229.759,335.279,204.693,335.279z"/>
<path style="fill:#FC6F58;" d="M204.693,335.279h-20.811c0,18.28-14.819,58.204-33.097,58.204c-0.041,0-0.084-0.007-0.126-0.009
	v95.916c30.434,13.757,64.041,21.73,99.418,22.533V380.661C250.078,355.599,229.759,335.279,204.693,335.279z"/>
<g>
</g>
<g>
</g>
<g>
</g>
<g>
</g>
<g>
</g>
<g>
</g>
<g>
</g>
<g>
</g>
<g>
</g>
<g>
</g>
<g>
</g>
<g>
</g>
<g>
</g>
<g>
</g>
<g>
</g>
</svg>
