<?xml version="1.0" encoding="iso-8859-1"?>
<!-- Generator: Adobe Illustrator 19.0.0, SVG Export Plug-In . SVG Version: 6.00 Build 0)  -->
<svg version="1.1" id="Layer_1" xmlns="http://www.w3.org/2000/svg" xmlns:xlink="http://www.w3.org/1999/xlink" x="0px" y="0px"
	 viewBox="0 0 460 460" style="enable-background:new 0 0 460 460;" xml:space="preserve">
<g>
	<path style="fill:#C2FBFF;" d="M230,0C102.974,0,0,102.975,0,230c0,104.964,70.312,193.506,166.406,221.096l288.921-267.449
		C433.881,78.84,341.147,0,230,0z"/>
	<path style="fill:#71E2F0;" d="M460,230c0-15.756-1.588-31.141-4.606-46.007L428.19,156.79H91.81l3.281,63.281l80.919,80.919
		L121.32,406l45.089,45.089C186.606,456.887,207.939,460,230,460C357.026,460,460,357.025,460,230z"/>
	<path style="fill:#C2001B;" d="M428.19,156.79l-63.28,63.28L428.19,156.79z"/>
	<path style="fill:#FF5419;" d="M352.821,81.413c-7.778-7.778-21.316-15.849-30.086-17.933c-8.77-2.085-15.945-3.79-15.945-3.79
		L230,103l-30,146l30,147l108.68-10V193.84l12.09,12.09l41.08-26.08l22.2-37.199L352.821,81.413z"/>
	<path style="fill:#FF7F4F;" d="M153.21,59.69c0,0-7.175,1.705-15.945,3.79c-8.77,2.084-22.309,10.154-30.086,17.933L45.95,142.65
		l23.562,43.841l39.718,19.438l12.09-12.09V386L230,396V103L153.21,59.69z"/>
	<polygon style="fill:#940030;" points="229.819,406 338.68,406 338.68,386 229.819,386 223.375,396 	"/>
	<rect x="121.32" y="386" style="fill:#E03A00;" width="108.499" height="20"/>
	
		<rect x="379.482" y="136.619" transform="matrix(0.7071 0.7071 -0.7071 0.7071 242.3199 -222.2842)" style="fill:#940030;" width="19.997" height="89.49"/>
	
		<rect x="60.52" y="136.613" transform="matrix(-0.7071 0.7071 -0.7071 -0.7071 248.622 259.7345)" style="fill:#E03A00;" width="19.997" height="89.49"/>
	<path style="fill:#940030;" d="M286.87,54.95l19.92,4.74C293.42,88.76,264.04,109,230,109l-10-10l10-10
		C254.61,89,275.99,75.21,286.87,54.95z"/>
	<path style="fill:#E03A00;" d="M230,89v20c-34.04,0-63.42-20.24-76.79-49.31l19.92-4.74C184.01,75.21,205.39,89,230,89z"/>
</g>
<g>
</g>
<g>
</g>
<g>
</g>
<g>
</g>
<g>
</g>
<g>
</g>
<g>
</g>
<g>
</g>
<g>
</g>
<g>
</g>
<g>
</g>
<g>
</g>
<g>
</g>
<g>
</g>
<g>
</g>
</svg>
