<?xml version="1.0" encoding="iso-8859-1"?>
<!-- Generator: Adobe Illustrator 19.0.0, SVG Export Plug-In . SVG Version: 6.00 Build 0)  -->
<svg version="1.1" id="Layer_1" xmlns="http://www.w3.org/2000/svg" xmlns:xlink="http://www.w3.org/1999/xlink" x="0px" y="0px"
	 viewBox="0 0 512 512" style="enable-background:new 0 0 512 512;" xml:space="preserve">
<circle style="fill:#C92F00;" cx="256" cy="256" r="256"/>
<path style="fill:#930000;" d="M264.776,511.834c129.598-4.368,234.76-105.055,246.175-232.746L349.953,118.088L205.64,227.835
	l55.51,55.51l-95.235,122.708L264.776,511.834z"/>
<path style="fill:#D0F7F4;" d="M278.225,256c22.966-7.77,40.851-27.27,45.821-52.121l17.287-86.438H170.667l17.287,86.438
	c4.97,24.85,22.856,44.351,45.821,52.121c-22.966,7.77-40.851,27.27-45.821,52.121l-17.287,86.438h170.667l-17.287-86.438
	C319.076,283.27,301.19,263.77,278.225,256z"/>
<path style="fill:#71E2EF;" d="M324.046,308.121c-4.97-24.85-22.856-44.351-45.821-52.121c22.966-7.77,40.851-27.27,45.821-52.121
	l17.287-86.438h-85.907v277.118h85.907L324.046,308.121z"/>
<g>
	<path style="fill:#FFC61B;" d="M338.21,129.833H173.792c-6.487,0-11.745-5.26-11.745-11.745l0,0
		c0-6.485,5.258-11.743,11.743-11.743h164.418c6.485,0,11.745,5.258,11.745,11.743l0,0
		C349.953,124.573,344.695,129.833,338.21,129.833z"/>
	<path style="fill:#FFC61B;" d="M338.21,409.105H173.792c-6.485,0-11.743-5.258-11.743-11.745l0,0
		c0-6.485,5.258-11.745,11.743-11.745H338.21c6.485,0,11.745,5.258,11.745,11.745l0,0
		C349.953,403.846,344.695,409.105,338.21,409.105z"/>
</g>
<g>
	<path style="fill:#EAA22F;" d="M338.21,106.344h-82.784v23.488h82.784c6.485,0,11.745-5.258,11.745-11.745
		S344.695,106.344,338.21,106.344z"/>
	<path style="fill:#EAA22F;" d="M338.21,385.617h-82.784v23.488h82.784c6.485,0,11.745-5.258,11.745-11.745
		S344.695,385.617,338.21,385.617z"/>
</g>
<g>
</g>
<g>
</g>
<g>
</g>
<g>
</g>
<g>
</g>
<g>
</g>
<g>
</g>
<g>
</g>
<g>
</g>
<g>
</g>
<g>
</g>
<g>
</g>
<g>
</g>
<g>
</g>
<g>
</g>
</svg>
