<?xml version="1.0" encoding="iso-8859-1"?>
<!-- Generator: Adobe Illustrator 19.0.0, SVG Export Plug-In . SVG Version: 6.00 Build 0)  -->
<svg version="1.1" id="Layer_1" xmlns="http://www.w3.org/2000/svg" xmlns:xlink="http://www.w3.org/1999/xlink" x="0px" y="0px"
	 viewBox="0 0 512 512" style="enable-background:new 0 0 512 512;" xml:space="preserve">
<circle style="fill:#366796;" cx="256" cy="256" r="256"/>
<g>
	<path style="fill:#273B7A;" d="M511.886,263.385l-90.391-90.391L113.778,398.222L225.77,510.214
		C235.685,511.381,245.77,512,256,512C394.914,512,507.976,401.355,511.886,263.385z"/>
	<polygon style="fill:#273B7A;" points="90.505,206.093 141.317,256.905 141.317,170.667 	"/>
</g>
<polygon style="fill:#FFAD9E;" points="398.222,398.222 113.778,398.222 113.778,170.667 256,113.778 398.222,170.667 "/>
<polygon style="fill:#E58F83;" points="398.222,170.667 256.288,113.893 256.288,398.222 398.222,398.222 "/>
<g>
	<polygon style="fill:#FF6262;" points="421.495,172.994 256,106.796 90.505,172.994 90.505,206.093 256,139.895 421.495,206.093 	
		"/>
	<rect x="199.111" y="284.444" style="fill:#FF6262;" width="113.778" height="113.778"/>
</g>
<g>
	<polygon style="fill:#E04646;" points="421.495,172.994 256.288,106.911 256.288,140.01 421.495,206.093 	"/>
	<rect x="256.293" y="284.444" style="fill:#E04646;" width="56.601" height="113.778"/>
</g>
<g>
</g>
<g>
</g>
<g>
</g>
<g>
</g>
<g>
</g>
<g>
</g>
<g>
</g>
<g>
</g>
<g>
</g>
<g>
</g>
<g>
</g>
<g>
</g>
<g>
</g>
<g>
</g>
<g>
</g>
</svg>
