<?xml version="1.0" encoding="iso-8859-1"?>
<!-- Generator: Adobe Illustrator 19.0.0, SVG Export Plug-In . SVG Version: 6.00 Build 0)  -->
<svg version="1.1" id="Layer_1" xmlns="http://www.w3.org/2000/svg" xmlns:xlink="http://www.w3.org/1999/xlink" x="0px" y="0px"
	 viewBox="0 0 512 512" style="enable-background:new 0 0 512 512;" xml:space="preserve">
<circle style="fill:#FFD15D;" cx="256" cy="256" r="256"/>
<path style="fill:#F9B54C;" d="M379.609,164.552l-58.101-59.394l-127.569,8.62v73.84l75.162,75.162L113.778,369.778L256,512
	c141.384,0,256-114.616,256-256L398.222,142.222L379.609,164.552z"/>
<path style="fill:#324A5E;" d="M321.508,179.286H190.492v-74.128h131.017V179.286z M207.731,162.047h96.539v-39.65h-96.539V162.047z
	"/>
<polygon style="fill:#2B3B4E;" points="321.508,105.158 256.288,105.158 256.288,122.397 304.269,122.397 304.269,162.047 
	256.288,162.047 256.288,179.286 321.508,179.286 "/>
<rect x="113.778" y="142.222" style="fill:#324A5E;" width="284.444" height="227.556"/>
<rect x="256.293" y="142.222" style="fill:#2B3B4E;" width="141.929" height="227.556"/>
<rect x="113.778" y="142.222" style="fill:#435C6D;" width="284.444" height="113.778"/>
<rect x="256.293" y="142.222" style="fill:#324A5E;" width="141.929" height="113.778"/>
<g>
	<rect x="142.222" y="249.104" style="fill:#FED8B2;" width="28.444" height="13.791"/>
	<rect x="341.333" y="249.104" style="fill:#FED8B2;" width="28.444" height="13.791"/>
</g>
<g>
</g>
<g>
</g>
<g>
</g>
<g>
</g>
<g>
</g>
<g>
</g>
<g>
</g>
<g>
</g>
<g>
</g>
<g>
</g>
<g>
</g>
<g>
</g>
<g>
</g>
<g>
</g>
<g>
</g>
</svg>
