<?xml version="1.0" encoding="iso-8859-1"?>
<!-- Generator: Adobe Illustrator 19.0.0, SVG Export Plug-In . SVG Version: 6.00 Build 0)  -->
<svg version="1.1" id="Layer_1" xmlns="http://www.w3.org/2000/svg" xmlns:xlink="http://www.w3.org/1999/xlink" x="0px" y="0px"
	 viewBox="0 0 512 512" style="enable-background:new 0 0 512 512;" xml:space="preserve">
<circle style="fill:#004EB1;" cx="256" cy="256" r="256"/>
<path style="fill:#002D6B;" d="M511.857,264.169L382.164,134.476c-15.311-16.586-36.658-26.927-60.183-26.927H190.019
	c-46.29,0-84.164,40.019-84.164,88.931v15.202c-6.173,1.859-10.705,7.604-10.705,14.362v8.722c0,4.359,1.891,8.29,4.887,11.033
	l15.918,15.794V282h-15.917v29.09l15.917,15.059v15.847c0,5.409,2.904,10.168,7.227,12.807c0.204,0.332,0.42,0.655,0.648,0.97
	h-17.975v14.865c0,10.114,3.92,19.224,10.1,25.434l114.926,114.7C239.146,511.577,247.523,512,256,512
	C394.65,512,507.541,401.772,511.857,264.169z"/>
<rect x="115.95" y="246.36" style="fill:#FF4F19;" width="280.09" height="37.21"/>
<rect x="256" y="246.36" style="fill:#EE2600;" width="140.04" height="37.21"/>
<path style="fill:#FFA91F;" d="M406.145,196.481c0-48.912-37.874-88.931-84.164-88.931H190.019
	c-46.29,0-84.164,40.019-84.164,88.931v16.439h300.29L406.145,196.481L406.145,196.481z"/>
<path style="fill:#FF8900;" d="M406.14,196.479v16.44H256v-105.37h65.98C368.27,107.549,406.14,147.57,406.14,196.479z"/>
<path style="fill:#36CD90;" d="M401.85,249.766h-291.7c-8.25,0-15-6.75-15-15v-8.722c0-8.25,6.75-15,15-15h291.7
	c8.25,0,15,6.75,15,15v8.722C416.85,243.016,410.1,249.766,401.85,249.766z"/>
<path style="fill:#00A753;" d="M416.85,226.049v8.72c0,8.25-6.75,15-15,15H256v-38.72h145.85c1.49,0,2.93,0.22,4.29,0.63
	C412.32,213.539,416.85,219.289,416.85,226.049z"/>
<path style="fill:#BD6200;" d="M381.044,356.997H130.955c-8.25,0-15-6.75-15-15v-16.736c0-8.25,6.75-15,15-15h250.089
	c8.25,0,15,6.75,15,15v16.736C396.044,350.247,389.294,356.997,381.044,356.997z"/>
<path style="fill:#743500;" d="M396.04,325.259v16.74c0,6.15-3.75,11.47-9.09,13.77c-1.81,0.79-3.82,1.23-5.91,1.23H256v-46.74
	h125.04c1.71,0,3.35,0.29,4.88,0.83C391.79,313.12,396.04,318.719,396.04,325.259z"/>
<path style="fill:#FFA91F;" d="M105.855,370.638c0,18.597,13.245,33.812,29.435,33.812h241.42c16.189,0,29.435-15.215,29.435-33.812
	v-14.865h-300.29L105.855,370.638L105.855,370.638z"/>
<path style="fill:#FF8900;" d="M406.14,355.769v14.87c0,18.6-13.24,33.81-29.43,33.81H256v-48.68H406.14z"/>
<polygon style="fill:#FFE670;" points="411.961,282.001 100.039,282.001 100.039,311.091 223.686,311.091 256,349.877 
	288.313,311.091 411.961,311.091 "/>
<polygon style="fill:#FFD400;" points="411.96,281.999 411.96,311.09 288.31,311.09 256,349.879 256,281.999 "/>
<g>
</g>
<g>
</g>
<g>
</g>
<g>
</g>
<g>
</g>
<g>
</g>
<g>
</g>
<g>
</g>
<g>
</g>
<g>
</g>
<g>
</g>
<g>
</g>
<g>
</g>
<g>
</g>
<g>
</g>
</svg>
