<?xml version="1.0" encoding="iso-8859-1"?>
<!-- Generator: Adobe Illustrator 19.0.0, SVG Export Plug-In . SVG Version: 6.00 Build 0)  -->
<svg version="1.1" id="Capa_1" xmlns="http://www.w3.org/2000/svg" xmlns:xlink="http://www.w3.org/1999/xlink" x="0px" y="0px"
	 viewBox="0 0 491.52 491.52" style="enable-background:new 0 0 491.52 491.52;" xml:space="preserve">
<circle style="fill:#EFC84A;" cx="245.76" cy="245.76" r="245.76"/>
<path style="opacity:0.1;enable-background:new    ;" d="M490.823,263.375L383.514,156.067l-0.002,0.005
	c-1.96-2.029-4.699-3.304-7.755-3.304h-11.664l-42.175-42.175l-0.01,0.029c-3.264-3.474-7.857-5.675-12.967-5.675H182.579
	c-9.83,0-17.869,8.038-17.869,17.92v29.901h-48.947c-5.99,0-10.803,4.863-10.803,10.802v31.13c0,3.345,1.559,6.295,3.962,8.266
	l-0.041,0.017l9.238,9.239v163.572c0,2.919,1.185,5.559,3.085,7.496h-0.001l0.005,0.005c0.059,0.06,0.119,0.121,0.18,0.181
	l107.395,107.395c5.616,0.383,11.263,0.649,16.976,0.649C375.56,491.52,481.782,390.873,490.823,263.375z"/>
<path style="fill:#44C4A1;" d="M118.141,375.77c0,5.959,4.827,10.79,10.781,10.79h233.675c5.955,0,10.783-4.831,10.783-10.79v-170.3
	H118.141V375.77z"/>
<path style="fill:#3A556A;" d="M180.085,122.85c0-1.386,1.13-2.517,2.515-2.517h126.32c1.385,0,2.515,1.131,2.515,2.517v29.933
	h15.36V122.85c0-9.863-8.02-17.89-17.875-17.89H182.6c-9.855,0-17.875,8.027-17.875,17.89v29.933h15.36V122.85z"/>
<path style="fill:#64798A;" d="M375.777,152.782h-48.983h-15.36h-131.35h-15.36h-48.982c-5.954,0-10.783,4.833-10.783,10.791v31.103
	c0,5.96,4.829,10.792,10.783,10.792h2.399H373.38h2.397c5.955,0,10.783-4.832,10.783-10.792v-31.103
	C386.56,157.615,381.732,152.782,375.777,152.782z"/>
<ellipse style="fill:#31978C;" cx="245.76" cy="298.701" rx="53.187" ry="53.233"/>
<ellipse style="fill:#FFFFFF;" cx="245.76" cy="293.325" rx="53.187" ry="53.233"/>
<polygon style="fill:#E56353;" points="283.658,281.121 257.95,281.121 257.95,255.391 233.571,255.391 233.571,281.121 
	207.864,281.121 207.864,305.519 233.571,305.519 233.571,331.248 257.95,331.248 257.95,305.519 283.658,305.519 "/>
<g>
</g>
<g>
</g>
<g>
</g>
<g>
</g>
<g>
</g>
<g>
</g>
<g>
</g>
<g>
</g>
<g>
</g>
<g>
</g>
<g>
</g>
<g>
</g>
<g>
</g>
<g>
</g>
<g>
</g>
</svg>
