<?xml version="1.0" encoding="iso-8859-1"?>
<!-- Generator: Adobe Illustrator 19.0.0, SVG Export Plug-In . SVG Version: 6.00 Build 0)  -->
<svg version="1.1" id="Layer_1" xmlns="http://www.w3.org/2000/svg" xmlns:xlink="http://www.w3.org/1999/xlink" x="0px" y="0px"
	 viewBox="0 0 512 512" style="enable-background:new 0 0 512 512;" xml:space="preserve">
<circle style="fill:#366796;" cx="256" cy="256" r="256"/>
<path style="fill:#263A7A;" d="M165.178,495.401C193.405,506.116,224.013,512,256,512c141.384,0,256-114.616,256-256
	c0-1.862-0.031-3.718-0.071-5.57L351.315,90.788l-120.732,35.43l122.49,105.094L71.542,401.767L165.178,495.401z"/>
<rect x="71.542" y="178.407" style="fill:#FFC61B;" width="128.862" height="223.366"/>
<g>
	<rect x="93.019" y="202.352" style="fill:#FFEDB5;" width="34.363" height="31.237"/>
	<rect x="144.567" y="202.352" style="fill:#FFEDB5;" width="34.363" height="31.237"/>
	<rect x="93.019" y="249.208" style="fill:#FFEDB5;" width="34.363" height="31.237"/>
	<rect x="144.567" y="249.208" style="fill:#FFEDB5;" width="34.363" height="31.237"/>
	<rect x="93.019" y="296.081" style="fill:#FFEDB5;" width="34.363" height="31.237"/>
	<rect x="144.567" y="296.081" style="fill:#FFEDB5;" width="34.363" height="31.237"/>
	<rect x="118.791" y="350.229" style="fill:#FFEDB5;" width="34.363" height="51.545"/>
</g>
<rect x="311.596" y="178.407" style="fill:#D48B07;" width="128.862" height="223.366"/>
<g>
	<rect x="333.076" y="202.352" style="fill:#FFEDB5;" width="34.363" height="31.237"/>
	<rect x="384.621" y="202.352" style="fill:#FFEDB5;" width="34.363" height="31.237"/>
	<rect x="333.076" y="249.208" style="fill:#FFEDB5;" width="34.363" height="31.237"/>
	<rect x="384.621" y="249.208" style="fill:#FFEDB5;" width="34.363" height="31.237"/>
	<rect x="333.076" y="296.081" style="fill:#FFEDB5;" width="34.363" height="31.237"/>
	<rect x="384.621" y="296.081" style="fill:#FFEDB5;" width="34.363" height="31.237"/>
	<rect x="358.848" y="350.229" style="fill:#FFEDB5;" width="34.363" height="51.545"/>
</g>
<rect x="160.685" y="90.788" style="fill:#E03A00;" width="190.63" height="330.421"/>
<rect x="255.431" y="90.788" style="fill:#940030;" width="95.889" height="330.421"/>
<rect x="192.457" y="126.224" style="fill:#FFD9D4;" width="50.835" height="46.213"/>
<rect x="268.705" y="126.224" style="fill:#FF6262;" width="50.835" height="46.213"/>
<rect x="192.457" y="195.543" style="fill:#FFD9D4;" width="50.835" height="46.213"/>
<rect x="268.705" y="195.543" style="fill:#FF6262;" width="50.835" height="46.213"/>
<rect x="192.457" y="264.861" style="fill:#FFD9D4;" width="50.835" height="46.213"/>
<rect x="268.705" y="264.861" style="fill:#FF6262;" width="50.835" height="46.213"/>
<rect x="230.59" y="344.954" style="fill:#FFD9D4;" width="50.835" height="76.248"/>
<rect x="255.431" y="344.954" style="fill:#FF6262;" width="25.997" height="76.248"/>
<g>
</g>
<g>
</g>
<g>
</g>
<g>
</g>
<g>
</g>
<g>
</g>
<g>
</g>
<g>
</g>
<g>
</g>
<g>
</g>
<g>
</g>
<g>
</g>
<g>
</g>
<g>
</g>
<g>
</g>
</svg>
