<?xml version="1.0" encoding="iso-8859-1"?>
<!-- Generator: Adobe Illustrator 19.0.0, SVG Export Plug-In . SVG Version: 6.00 Build 0)  -->
<svg version="1.1" id="Layer_1" xmlns="http://www.w3.org/2000/svg" xmlns:xlink="http://www.w3.org/1999/xlink" x="0px" y="0px"
	 viewBox="0 0 512 512" style="enable-background:new 0 0 512 512;" xml:space="preserve">
<path style="fill:#EA5A7D;" d="M503.214,189.335C473.876,80.279,374.321,0,256,0C114.616,0,0,114.616,0,256
	c0,140.631,113.401,254.758,253.745,255.971L503.214,189.335z"/>
<path style="fill:#E0315B;" d="M512,256c0-23.063-3.069-45.408-8.786-66.665L402.922,89.043l-25.266,52.5l48.17,0.948l-0.612,89.11
	L256,256l-38.957,219.27l36.701,36.702c0.752,0.007,1.501,0.029,2.255,0.029C397.384,512,512,397.384,512,256z"/>
<polygon style="fill:#A2B1B7;" points="267.129,322.783 244.868,322.783 244.868,246.158 425.183,223.898 425.183,155.826 
	255.999,155.826 255.999,133.565 447.443,133.565 447.443,243.58 267.129,265.84 "/>
<polygon style="fill:#FEEB5C;" points="402.922,89.043 256,89.043 233.739,144.696 256,200.348 402.922,200.348 "/>
<rect x="109.078" y="89.043" style="fill:#FFFFFF;" width="146.922" height="111.304"/>
<polygon style="fill:#008CCB;" points="294.957,300.522 233.739,300.522 256,475.27 294.957,475.27 "/>
<g>
	<rect x="217.043" y="300.522" style="fill:#3AAADC;" width="38.957" height="174.748"/>
	<polygon style="fill:#3AAADC;" points="306.087,289.391 256,289.391 244.87,300.522 256,311.652 306.087,311.652 	"/>
</g>
<rect x="205.913" y="289.391" style="fill:#74C8EE;" width="50.087" height="22.261"/>
<g>
	<rect x="131.339" y="155.826" style="fill:#FFF296;" width="22.261" height="22.261"/>
	<rect x="164.73" y="122.435" style="fill:#FFF296;" width="22.261" height="22.261"/>
</g>
<g>
</g>
<g>
</g>
<g>
</g>
<g>
</g>
<g>
</g>
<g>
</g>
<g>
</g>
<g>
</g>
<g>
</g>
<g>
</g>
<g>
</g>
<g>
</g>
<g>
</g>
<g>
</g>
<g>
</g>
</svg>
