<?xml version="1.0" encoding="iso-8859-1"?>
<!-- Generator: Adobe Illustrator 19.0.0, SVG Export Plug-In . SVG Version: 6.00 Build 0)  -->
<svg version="1.1" id="Capa_1" xmlns="http://www.w3.org/2000/svg" xmlns:xlink="http://www.w3.org/1999/xlink" x="0px" y="0px"
	 viewBox="0 0 491.52 491.52" style="enable-background:new 0 0 491.52 491.52;" xml:space="preserve">
<circle style="fill:#EA8953;" cx="245.76" cy="245.76" r="245.76"/>
<path style="opacity:0.1;enable-background:new    ;" d="M104.96,164.834v161.843L268.674,490.42
	C386.1,479.556,479.546,386.115,490.418,268.692L386.56,164.834H104.96z"/>
<rect x="104.96" y="164.813" style="fill:#44C4A1;" width="281.6" height="161.884"/>
<g>
	<path style="fill:#31978C;" d="M115.202,174.729V316.79h261.12V174.729H115.202z M366.082,292.01
		c-8.483,0-15.36,6.656-15.36,14.868h-209.92c0-8.211-6.877-14.868-15.36-14.868v-92.5c8.483,0,15.36-6.657,15.36-14.868h209.92
		c0,8.211,6.877,14.868,15.36,14.868V292.01z"/>
	<ellipse style="fill:#31978C;" cx="245.76" cy="245.76" rx="41.114" ry="50.171"/>
	<ellipse style="fill:#31978C;" cx="335.872" cy="245.76" rx="10.716" ry="10.373"/>
	<ellipse style="fill:#31978C;" cx="155.658" cy="245.76" rx="10.716" ry="10.373"/>
</g>
<path style="fill:#44C4A1;" d="M244.055,279.896v-6.012c-7.099-0.771-13.471-3.76-19.11-8.98l5.67-7.164
	c4.349,4.008,8.825,6.401,13.44,7.164v-15.977c-5.854-1.481-10.14-3.424-12.858-5.844c-2.718-2.413-4.077-5.998-4.077-10.75
	c0-4.745,1.561-8.632,4.697-11.647c3.135-3.023,7.213-4.671,12.238-4.946v-4.115h4.968v4.202c5.696,0.435,11.082,2.5,16.158,6.172
	l-5.051,7.58c-3.42-2.58-7.118-4.175-11.107-4.778v15.481h0.234c5.955,1.481,10.329,3.491,13.124,6.011
	c2.8,2.527,4.197,6.193,4.197,10.998s-1.606,8.713-4.817,11.735c-3.211,3.016-7.453,4.665-12.738,4.939v5.932H244.055z
	 M238.575,226.737c-1.321,1.233-1.979,2.775-1.979,4.611c0,1.843,0.518,3.291,1.555,4.363c1.031,1.072,3.003,2.104,5.904,3.089
	v-14.248C241.722,224.773,239.896,225.503,238.575,226.737z M254.928,262.846c1.447-1.26,2.174-2.855,2.174-4.779
	c0-1.917-0.569-3.445-1.706-4.571c-1.144-1.119-3.268-2.178-6.372-3.17v14.824C251.508,264.877,253.474,264.113,254.928,262.846z"/>
<g>
</g>
<g>
</g>
<g>
</g>
<g>
</g>
<g>
</g>
<g>
</g>
<g>
</g>
<g>
</g>
<g>
</g>
<g>
</g>
<g>
</g>
<g>
</g>
<g>
</g>
<g>
</g>
<g>
</g>
</svg>
