<?xml version="1.0" encoding="iso-8859-1"?>
<!-- Generator: Adobe Illustrator 19.0.0, SVG Export Plug-In . SVG Version: 6.00 Build 0)  -->
<svg version="1.1" id="Layer_1" xmlns="http://www.w3.org/2000/svg" xmlns:xlink="http://www.w3.org/1999/xlink" x="0px" y="0px"
	 viewBox="0 0 512 512" style="enable-background:new 0 0 512 512;" xml:space="preserve">
<circle style="fill:#B5F1F4;" cx="256" cy="256" r="256"/>
<path style="fill:#84DBFF;" d="M497.776,340.301L319.821,162.345l-53.432,273.47l64.919,64.919
	C409.103,476.824,471.092,416.84,497.776,340.301z"/>
<rect x="170.667" y="227.556" style="fill:#324A5E;" width="170.667" height="170.667"/>
<rect x="256" y="227.556" style="fill:#2B3B4E;" width="85.333" height="170.667"/>
<path style="fill:#FED8B2;" d="M256,512c51.809,0,100.012-15.405,140.309-41.863l-14.743-88.46
	c-3.406-20.44-18.615-36.914-38.719-41.939l-46.792-11.698c-9.44-2.36-16.063-10.843-16.063-20.575V276.04H232.01v31.423
	c0,9.731-6.623,18.213-16.063,20.575l-46.792,11.698c-20.104,5.027-35.312,21.499-38.719,41.939l-14.743,88.46
	C155.988,496.595,204.191,512,256,512z"/>
<path style="fill:#E2B78F;" d="M381.566,381.676c-3.406-20.44-18.615-36.914-38.719-41.939l-46.792-11.698
	c-9.44-2.36-16.063-10.843-16.063-20.575V276.04H256V512c51.809,0,100.011-15.405,140.309-41.863L381.566,381.676z"/>
<path style="fill:#FFD15D;" d="M381.566,381.676c-3.406-20.44-18.615-36.914-38.719-41.939l-33.078-8.27
	c-7.702,22.292-28.858,38.31-53.769,38.31s-46.068-16.019-53.769-38.31l-33.078,8.27c-20.104,5.027-35.312,21.499-38.719,41.939
	l-14.743,88.46C155.988,496.595,204.191,512,256,512s100.012-15.405,140.309-41.863L381.566,381.676z"/>
<path style="fill:#FC6F58;" d="M381.566,381.676c-3.406-20.44-18.615-36.914-38.719-41.939l-25.281-6.32
	c-2.708,1.264-5.537,2.313-8.125,3.608c-39.65,13.791-77.576,31.03-115.502,48.269c-21.985,9.423-44.608,16.282-67.481,20.232
	l-10.769,64.612C155.988,496.595,204.191,512,256,512s100.012-15.405,140.309-41.863L381.566,381.676z"/>
<path style="fill:#F1543F;" d="M381.566,381.676c-3.406-20.44-18.615-36.914-38.719-41.939l-25.281-6.32
	c-2.708,1.264-5.537,2.313-8.125,3.608c-18.122,6.303-35.874,13.346-53.441,20.763V512c51.809,0,100.011-15.405,140.309-41.863
	L381.566,381.676z"/>
<path style="fill:#F4E3C3;" d="M256,306.855L256,306.855c-39.274,0-71.111-31.837-71.111-71.111V207.3
	c0-39.274,31.837-71.111,71.111-71.111l0,0c39.274,0,71.111,31.837,71.111,71.111v28.444
	C327.111,275.018,295.274,306.855,256,306.855z"/>
<path style="fill:#FED8B2;" d="M256,136.189v170.667c39.274,0,71.111-31.837,71.111-71.111V207.3
	C327.111,168.026,295.274,136.189,256,136.189z"/>
<path style="fill:#324A5E;" d="M169.153,339.737l22.731-5.684c-0.372-49.681,2.617-95.284,14.122-103.912
	C242.785,202.559,256,170.667,256,170.667s13.217,31.892,49.993,59.475c11.504,8.628,14.493,54.231,14.121,103.912l22.731,5.684
	c4.932,1.233,9.564,3.163,13.805,5.663l-13.038-130.381c-2.924-29.229-19.747-55.605-45.665-69.434
	c-11.405-6.085-25.297-10.259-41.95-10.259s-30.544,4.174-41.95,10.259c-25.917,13.829-42.741,40.203-45.665,69.434L155.346,345.4
	C159.589,342.899,164.221,340.97,169.153,339.737z"/>
<path style="fill:#2B3B4E;" d="M343.614,215.018c-2.924-29.229-19.747-55.605-45.665-69.434
	c-11.405-6.085-25.297-10.259-41.95-10.259v35.342c0.012,0.028,13.231,31.903,49.993,59.473
	c11.504,8.628,14.493,54.231,14.121,103.912l22.731,5.684c4.932,1.233,9.564,3.163,13.805,5.663L343.614,215.018z"/>
<g>
	<circle style="fill:#FD8469;" cx="256" cy="218.074" r="3.448"/>
	<path style="fill:#FD8469;" d="M256,281.859c-9.506,0-17.239-7.733-17.239-17.239h6.896c0,5.704,4.639,10.343,10.343,10.343
		c5.704,0,10.343-4.639,10.343-10.343h6.896C273.239,274.125,265.506,281.859,256,281.859z"/>
</g>
<path style="fill:#FC6F58;" d="M273.239,264.62h-6.896c0,5.703-4.639,10.343-10.343,10.343v6.896
	C265.506,281.859,273.239,274.125,273.239,264.62z"/>
<g>
	<circle style="fill:#324A5E;" cx="225.401" cy="238.761" r="5.172"/>
	<circle style="fill:#324A5E;" cx="286.599" cy="238.761" r="5.172"/>
</g>
<g>
</g>
<g>
</g>
<g>
</g>
<g>
</g>
<g>
</g>
<g>
</g>
<g>
</g>
<g>
</g>
<g>
</g>
<g>
</g>
<g>
</g>
<g>
</g>
<g>
</g>
<g>
</g>
<g>
</g>
</svg>
