<?xml version="1.0" encoding="iso-8859-1"?>
<!-- Generator: Adobe Illustrator 19.0.0, SVG Export Plug-In . SVG Version: 6.00 Build 0)  -->
<svg version="1.1" id="Layer_1" xmlns="http://www.w3.org/2000/svg" xmlns:xlink="http://www.w3.org/1999/xlink" x="0px" y="0px"
	 viewBox="0 0 512 512" style="enable-background:new 0 0 512 512;" xml:space="preserve">
<path style="fill:#748993;" d="M256,0C114.616,0,0,114.615,0,256c0,136.178,106.328,247.521,240.492,255.538l265.763-309.724
	C481.395,86.455,378.793,0,256,0z"/>
<path style="fill:#414D53;" d="M512,256c0-18.592-2-36.715-5.764-54.182L367.304,62.887l-35.896,75.409L256,62.887l-6.4,38.122
	l-38.122-38.122l-8.626,35.896l-35.896-35.896l-8.53,98.944l46.524,60.773l-26.863,226.509l62.406,62.406
	C245.624,511.825,250.791,512,256,512C397.385,512,512,397.384,512,256z"/>
<polygon style="fill:#A65A3A;" points="311.652,318.887 333.913,449.113 367.304,449.113 367.304,330.017 "/>
<polygon style="fill:#D3754F;" points="300.522,330.017 300.522,449.113 333.913,449.113 333.913,318.887 "/>
<g>
	<rect x="178.087" y="248.175" style="fill:#AEE6FF;" width="44.522" height="200.938"/>
	<polygon style="fill:#AEE6FF;" points="166.957,176.974 144.696,154.713 144.696,62.887 166.957,62.887 	"/>
	<rect x="189.217" y="62.887" style="fill:#AEE6FF;" width="22.261" height="114.087"/>
	<polygon style="fill:#AEE6FF;" points="256,154.713 233.739,176.974 233.739,62.887 256,62.887 	"/>
</g>
<path style="fill:#74C8EE;" d="M256,176.974v33.391c0,30.731-24.921,55.652-55.652,55.652l-22.261-89.043H256z"/>
<rect x="144.696" y="154.713" style="fill:#D1F1FF;" width="111.304" height="22.261"/>
<path style="fill:#AEE6FF;" d="M200.348,176.974v89.043c-30.731,0-55.652-24.921-55.652-55.652v-33.391H200.348z"/>
<polygon style="fill:#D1F1FF;" points="300.522,274.365 300.522,330.017 367.304,330.017 367.304,307.757 "/>
<path style="fill:#AEE6FF;" d="M278.261,151.93v155.826h22.261l66.783-222.609V62.887C318.13,62.887,278.261,102.756,278.261,151.93
	z"/>
<path style="fill:#74C8EE;" d="M300.522,151.93v155.826h66.783V85.148C330.485,85.148,300.522,115.111,300.522,151.93z"/>
<g>
</g>
<g>
</g>
<g>
</g>
<g>
</g>
<g>
</g>
<g>
</g>
<g>
</g>
<g>
</g>
<g>
</g>
<g>
</g>
<g>
</g>
<g>
</g>
<g>
</g>
<g>
</g>
<g>
</g>
</svg>
