<?xml version="1.0" encoding="iso-8859-1"?>
<!-- Generator: Adobe Illustrator 19.0.0, SVG Export Plug-In . SVG Version: 6.00 Build 0)  -->
<svg version="1.1" id="Layer_1" xmlns="http://www.w3.org/2000/svg" xmlns:xlink="http://www.w3.org/1999/xlink" x="0px" y="0px"
	 viewBox="0 0 512 512" style="enable-background:new 0 0 512 512;" xml:space="preserve">
<circle style="fill:#273B7A;" cx="256" cy="256" r="256"/>
<path style="fill:#121149;" d="M500.714,331.379L304.447,135.113l-3.112,6.48l-22.554-22.978l-0.705,40.553l-24.233-24.207
	l-9.123,92.793l-11.9-12.981l-2.867,39.498l11.919,11.919l-1.81,24.424l-72.821-72.821l-1.222,6.839l-23.342-22.349l0.134,41.562
	l-26.052-26.052l5.013,106.232l-25.688-26.241l-7.647,47.075l8.387,25.493l25.285,45.396l12.067,16.665l20.732,45.353l18.599,20.652
	l3.05,0.996C201.569,507.571,228.266,512,256,512C371.148,512,468.533,435.972,500.714,331.379z"/>
<path style="fill:#FFEDB5;" d="M320.991,175.011c-5.997,0-10.861,4.861-10.861,10.861v29.618h-2.815v-73.059
	c0-5.973-4.887-10.861-10.861-10.861c-5.973,0-10.861,4.887-10.861,10.861v73.061h-3.518v-89.188
	c0-5.973-4.887-10.861-10.861-10.861s-10.861,4.887-10.861,10.861v89.186h-3.518v-73.059c0-5.973-4.887-10.861-10.861-10.861
	s-10.861,4.887-10.861,10.861v62.412c4.836,2.619,8.126,7.737,8.126,13.61v21.721c0,4.236,3.444,7.68,7.678,7.68h5.923
	c16.453,0,29.839,13.384,29.839,29.837v18.211h-9.214v-18.211c0-11.373-9.252-20.623-20.625-20.623h-5.923
	c-9.316,0-16.894-7.578-16.894-16.894v-21.721c0-3.448-2.805-6.253-6.253-6.253s-6.253,2.805-6.253,6.253v64.129
	c0,13.441,5.236,26.079,14.739,35.585l6.982,6.98v186.535c4.227,0.207,8.48,0.317,12.757,0.317c18.575,0,36.68-1.996,54.131-5.753
	V327.056l5.632-5.632c10.3-10.302,16.089-24.273,16.089-38.841v-96.711C331.852,179.874,326.989,175.011,320.991,175.011z"/>
<path style="fill:#FEE187;" d="M320.991,175.011c-5.997,0-10.861,4.861-10.861,10.861v29.618h-2.815v-73.059
	c0-5.973-4.887-10.861-10.861-10.861c-5.973,0-10.861,4.887-10.861,10.861v73.061h-3.518v-89.188
	c0-5.973-4.887-10.861-10.861-10.861c-0.093,0-0.183,0.012-0.276,0.014v135.945c9.363,5.041,15.743,14.931,15.743,26.286V295.9
	h-9.214v-18.211c0-5.92-2.52-11.248-6.528-15.012v248.877c13.362-0.774,26.452-2.567,39.19-5.31V327.056l5.632-5.632
	c10.3-10.302,16.089-24.273,16.089-38.841v-96.711C331.852,179.874,326.989,175.011,320.991,175.011z"/>
<path style="fill:#D35933;" d="M184.803,258.679c-5.997,0-10.861,4.863-10.861,10.861v29.618h-2.815v-73.061
	c0-5.973-4.887-10.861-10.861-10.861c-5.973,0-10.861,4.887-10.861,10.861v73.061h-3.518v-89.186
	c0-5.973-4.887-10.861-10.861-10.861s-10.861,4.887-10.861,10.861v89.186h-3.518v-73.061c0-5.973-4.887-10.861-10.861-10.861
	s-10.861,4.887-10.861,10.861v62.412c4.836,2.619,8.126,7.737,8.126,13.61v21.721c0,4.234,3.444,7.68,7.678,7.68h5.923
	c16.453,0,29.839,13.386,29.839,29.837v18.211h-9.214v-18.211c0-11.373-9.252-20.623-20.625-20.623h-5.923
	c-9.316,0-16.894-7.578-16.894-16.894V302.12c0-3.448-2.805-6.253-6.253-6.253c-3.448,0-6.253,2.805-6.253,6.253v64.129
	c0,13.441,5.236,26.079,14.739,35.585l6.982,6.98v55.408c20.287,14.538,42.78,26.191,66.889,34.344v-87.842l5.632-5.632
	c10.3-10.302,16.089-24.273,16.089-38.841V269.54C195.663,263.54,190.8,258.679,184.803,258.679z"/>
<path style="fill:#B54324;" d="M184.803,258.679c-5.997,0-10.861,4.863-10.861,10.861v29.618h-2.815v-73.061
	c0-5.973-4.887-10.861-10.861-10.861c-5.973,0-10.861,4.887-10.861,10.861v73.061h-3.518v-89.186
	c0-5.973-4.887-10.861-10.861-10.861c-0.286,0-0.569,0.021-0.85,0.043v135.639c9.669,4.942,16.317,14.981,16.317,26.564v18.211
	h-9.214v-18.211c0-6.197-2.762-11.752-7.102-15.534v135.335c12.657,6.865,25.933,12.731,39.765,17.408v-87.842l5.632-5.632
	c10.3-10.302,16.089-24.273,16.089-38.841v-96.711C195.663,263.54,190.8,258.679,184.803,258.679z"/>
<g>
</g>
<g>
</g>
<g>
</g>
<g>
</g>
<g>
</g>
<g>
</g>
<g>
</g>
<g>
</g>
<g>
</g>
<g>
</g>
<g>
</g>
<g>
</g>
<g>
</g>
<g>
</g>
<g>
</g>
</svg>
