<?xml version="1.0" encoding="iso-8859-1"?>
<!-- Generator: Adobe Illustrator 19.0.0, SVG Export Plug-In . SVG Version: 6.00 Build 0)  -->
<svg version="1.1" id="Layer_1" xmlns="http://www.w3.org/2000/svg" xmlns:xlink="http://www.w3.org/1999/xlink" x="0px" y="0px"
	 viewBox="0 0 512 512" style="enable-background:new 0 0 512 512;" xml:space="preserve">
<circle style="fill:#B2E3FF;" cx="256" cy="256" r="256"/>
<path style="fill:#A0CDE6;" d="M498.444,338.176l-30.936-76.98c-1.152-4.288-4.304-7.052-7.508-8.644l-35.176-17.696L403.676,184.8
	c-1.492-7.28-7.968-12.8-15.676-12.8h-24c-8.8,0-16,7.2-16,16v0.328v1.72v0.328v1.728v0.328v3.904l-2.344-1.172
	c-0.176-0.468-0.34-0.932-0.524-1.412c-1.024-2.752-2.152-5.516-3.416-8.312c-0.248-0.644-0.46-1.28-0.716-1.932
	c-1.016-2.732-2.136-5.484-3.396-8.252c-0.252-0.672-0.472-1.328-0.744-2.008c-1.012-2.728-2.132-5.468-3.392-8.24
	c-1.024-2.748-2.148-5.516-3.416-8.3c-0.24-0.632-0.444-1.252-0.696-1.888c-1.024-2.752-2.156-5.544-3.428-8.344
	c-0.236-0.636-0.44-1.252-0.688-1.896c-1.032-2.764-2.164-5.56-3.44-8.368c-0.232-0.616-0.424-1.228-0.676-1.848
	c-1.024-2.76-2.156-5.544-3.428-8.344c-0.244-0.652-0.452-1.284-0.712-1.94c-1.152-3.092-2.416-6.224-3.876-9.36
	c-3.92-9.788-9.344-19.872-15.956-28.684c-0.012-0.012-0.02-0.028-0.032-0.04c-0.56-0.74-1.12-1.46-1.692-2.18
	c-0.188-0.24-0.376-0.476-0.572-0.716c-0.528-0.656-1.064-1.292-1.6-1.928c-0.248-0.28-0.484-0.572-0.736-0.856
	c-0.524-0.596-1.052-1.184-1.584-1.76c-0.272-0.304-0.556-0.6-0.836-0.904c-0.516-0.552-1.04-1.088-1.576-1.624
	c-0.308-0.308-0.62-0.612-0.932-0.916c-0.516-0.508-1.04-1.008-1.568-1.492c-0.332-0.304-0.668-0.592-1.004-0.892
	c-0.524-0.46-1.048-0.928-1.584-1.38c-0.352-0.292-0.712-0.568-1.068-0.852c-0.884-0.708-1.776-1.388-2.688-2.036
	c-0.496-0.36-0.992-0.72-1.496-1.064c-0.42-0.28-0.86-0.54-1.288-0.804c-0.508-0.328-1.016-0.648-1.54-0.948
	c-0.42-0.252-0.86-0.476-1.288-0.716c-0.536-0.284-1.064-0.576-1.596-0.836c-0.424-0.216-0.864-0.412-1.296-0.604
	c-0.552-0.252-1.096-0.492-1.652-0.716c-0.428-0.18-0.864-0.344-1.296-0.5c-0.572-0.212-1.14-0.408-1.724-0.584
	c-0.424-0.132-0.852-0.264-1.276-0.388c-0.6-0.168-1.216-0.312-1.82-0.448c-0.412-0.084-0.812-0.188-1.224-0.264
	c-0.68-0.12-1.368-0.216-2.056-0.304c-0.34-0.04-0.684-0.096-1.028-0.128C258.06,60.06,257.02,60,255.98,60
	c-1.06,0-2.096,0.06-3.14,0.144c-0.36,0.032-0.712,0.092-1.068,0.132c-0.68,0.084-1.368,0.164-2.04,0.28
	c-0.42,0.08-0.844,0.172-1.26,0.26c-0.596,0.12-1.2,0.252-1.784,0.412c-0.452,0.116-0.916,0.256-1.364,0.392
	c-0.552,0.164-1.088,0.34-1.636,0.528c-0.468,0.164-0.944,0.34-1.416,0.52c-0.508,0.2-1.016,0.408-1.524,0.616
	c-0.492,0.216-0.984,0.428-1.468,0.656c-0.46,0.224-0.916,0.452-1.376,0.684c-0.524,0.26-1.044,0.536-1.556,0.816
	c-0.408,0.228-0.796,0.46-1.192,0.696c-0.56,0.332-1.112,0.66-1.664,1.012c-0.304,0.192-0.596,0.404-0.904,0.596
	c-0.632,0.42-1.264,0.844-1.896,1.296c-0.044,0.032-0.084,0.064-0.12,0.092C207.9,85.664,192,120.944,192,144
	c0,8.708,0.964,21.78,2.496,37.08L168,194.328l-4.324-8.6C162.184,178.444,155.708,172,148,172h-24c-8.8,0-16,7.2-16,16v2.048v2.056
	v24.232v2.052v2.048v3.908l-56,28c-4.016,1.996-8,5.428-8,12v1.488v0.56v1.488v0.568v1.488v18.416v2.048v1.6l72.092,178.348
	C156.32,496.656,204.356,512,256,512C368.624,512,464.2,439.236,498.444,338.176z"/>
<path style="fill:#E6E6E6;" d="M164,188v56c0,8.8-7.2,16-16,16h-24c-8.8,0-16-7.2-16-16v-56c0-8.8,7.2-16,16-16h24
	C156.8,172,164,179.2,164,188z M388,172h-24c-8.8,0-16,7.2-16,16v56c0,8.8,7.2,16,16,16h24c8.8,0,16-7.2,16-16v-56
	C404,179.2,396.8,172,388,172z"/>
<g>
	<path style="fill:#CCCCCC;" d="M348,188.328V244c0,8.8,7.2,16,16,16h24c8.8,0,16-7.2,16-16v-27.672L348,188.328z"/>
	<path style="fill:#CCCCCC;" d="M108,216.328V244c0,8.8,7.2,16,16,16h24c8.8,0,16-7.2,16-16v-55.672L108,216.328z"/>
</g>
<path style="fill:#E6E6E6;" d="M220,184.328l-0.056,72.54c0,6.576-3.768,10.724-7.944,11.46l-160,28c-4.176,0.74-8-1.428-8-8v-24
	c0-6.572,3.984-10.004,8-12l160-80C216.016,170.336,220,177.756,220,184.328z M460,252.328l-160-80c-4.016-1.992-8,5.428-8,12
	l0.056,72.54c0,6.576,3.768,10.724,7.944,11.46l160,28c4.176,0.74,8-1.428,8-8v-24C468,257.756,464.016,254.324,460,252.328z"/>
<path style="fill:#CCCCCC;" d="M300,172.328c-4.016-1.992-8,5.428-8,12l0.056,72.54c0,6.576,3.768,10.724,7.944,11.46l10.36,1.812
	c4.024-28.58,8.28-60.944,10.952-87.156L300,172.328z"/>
<g>
	<path style="fill:#263740;" d="M52,296.328l160-28c4.176-0.744,7.944-4.892,7.944-11.46l0.032-39.044L44,265.816v22.512
		C44,294.9,47.824,297.068,52,296.328z"/>
	<path style="fill:#263740;" d="M292.024,217.824l0.032,39.044c0,6.576,3.768,10.72,7.944,11.46l160,28c4.176,0.74,8-1.428,8-8
		v-22.512L292.024,217.824z"/>
	<path style="fill:#263740;" d="M231.376,342.376c-0.624-7.504-4.476-11.344-8.564-8.524l-45.14,31.108
		c-4.084,2.82-7.428,9.768-7.428,15.46c0,5.688,3.576,9.572,7.936,8.624l48.124-10.368c4.368-0.94,7.428-7.848,6.804-15.352
		L231.376,342.376z"/>
	<path style="fill:#263740;" d="M280.624,341.444c0.624-7.504,4.476-11.34,8.564-8.52l45.14,31.1
		c4.084,2.82,7.428,9.772,7.428,15.46s-3.576,9.572-7.936,8.628l-48.124-10.368c-4.368-0.94-7.428-7.848-6.804-15.356
		L280.624,341.444z"/>
</g>
<path style="fill:#1E2C33;" d="M289.188,332.924c-4.084-2.82-7.936,1.016-8.564,8.52l-1.732,20.956
	c-0.624,7.508,2.432,14.416,6.8,15.36l3.272,0.704c6.588-16.816,10.792-33.804,11.008-38.1L289.188,332.924z"/>
<path style="fill:#E6E6E6;" d="M256,60c-35.344,0-64,53.048-64,84c0,43.628,24,196,24,196c0,7.744,18.668,76,40,76s40-68.256,40-76
	c0,0,24-152.372,24-196C320,116.916,291.344,60,256,60z"/>
<path style="fill:#FFFFFF;" d="M228.464,260c-3.412-12.536-5.98-25.2-8.192-37.916c-2.252-12.724-3.964-25.516-5.404-38.36
	c-1.228-12.888-2.4-25.748-1.988-38.928c0.172-7,2.324-13.532,4.956-19.556c2.768-6.008,6.144-11.64,10.224-16.716
	c-2.548,5.972-4.896,11.944-6.528,18.052c-1.68,6.076-2.784,12.252-2.416,18.172c0.436,6.272,0.96,12.656,1.688,19.008l2.02,19.132
	c1.26,12.772,2.632,25.568,3.612,38.412C227.484,234.136,228.336,247.012,228.464,260z"/>
<g>
	<path style="fill:#263740;" d="M260,380l4,72c0.208,3.448-3.584,7.836-8,8c-4.416,0.16-7.792-4.556-8-8c-0.012-0.196,4-72,4-72
		c0.084-1.508,2.072-4.084,4-4.012C257.82,376.056,259.916,378.608,260,380z"/>
	<path style="fill:#263740;" d="M256,100c15.492,0,29.728-5.244,41.164-13.964C286.036,71.208,271.68,60,256,60
		c-15.972,0-30.564,10.844-41.772,25.58C225.756,94.584,240.236,100,256,100z"/>
</g>
<g>
</g>
<g>
</g>
<g>
</g>
<g>
</g>
<g>
</g>
<g>
</g>
<g>
</g>
<g>
</g>
<g>
</g>
<g>
</g>
<g>
</g>
<g>
</g>
<g>
</g>
<g>
</g>
<g>
</g>
</svg>
