<svg id="Layer_1" data-name="Layer 1" xmlns="http://www.w3.org/2000/svg" viewBox="0 0 84.2 32.99"><defs><style>.cls-1{fill:#fff;}</style></defs><title>census-logo-white</title><path class="cls-1" d="M56.64,27.17h2.15a1.85,1.85,0,0,1,1.39.41,1.26,1.26,0,0,1,.46,1,1.31,1.31,0,0,1-.38,1,1.08,1.08,0,0,1-.52.29,1.37,1.37,0,0,1,1.13,1.42,1.5,1.5,0,0,1-1.48,1.57l-0.72,0h-2V27.17Zm1.13,1v1.3h0.91a1,1,0,0,0,.49-0.07,0.74,0.74,0,0,0,.29-0.59,0.65,0.65,0,0,0-.33-0.57,1.15,1.15,0,0,0-.47-0.07H57.76Zm0,2.24v1.53h1a0.9,0.9,0,0,0,.53-0.13,0.85,0.85,0,0,0,.29-0.66,0.72,0.72,0,0,0-.42-0.69,1.14,1.14,0,0,0-.44-0.05H57.78Z"/><path class="cls-1" d="M66.7,28.76v0.4a1.57,1.57,0,0,1,.55-0.49,1,1,0,0,1,.36-0.06,0.85,0.85,0,0,1,.41.09l-0.23.92a0.61,0.61,0,0,0-.32-0.08,0.87,0.87,0,0,0-.67.35v2.95H65.71V28.76h1Z"/><path class="cls-1" d="M71.32,31.73l0.42,0.65a2.38,2.38,0,0,1-1.57.58,1.94,1.94,0,0,1-2-2.16,2.29,2.29,0,0,1,.52-1.65A1.64,1.64,0,0,1,70,28.58a1.71,1.71,0,0,1,1.21.44,2.46,2.46,0,0,1,.55,1.83V31.1H69.38v0a0.86,0.86,0,0,0,.88,1,1.64,1.64,0,0,0,1.06-.42M69.39,30.3h1.26v0a1.07,1.07,0,0,0-.13-0.63A0.53,0.53,0,0,0,70,29.38a0.73,0.73,0,0,0-.65.9v0Z"/><path class="cls-1" d="M74.86,32.83V32.54a1.86,1.86,0,0,1-.25.22,1.45,1.45,0,0,1-.84.23,1.24,1.24,0,0,1-1.43-1.3c0-1,.68-1.44,2-1.44h0.24V30.09c0-.46-0.09-0.62-0.49-0.62a2.31,2.31,0,0,0-1.21.47l-0.46-.78a3.14,3.14,0,0,1,.67-0.34,2.83,2.83,0,0,1,1.14-.24,1.28,1.28,0,0,1,1.34.73,2.14,2.14,0,0,1,.07.75l0,1.4v1.39H74.86ZM74.56,31h0c-0.76,0-1,.14-1,0.64a0.49,0.49,0,0,0,.48.55,0.79,0.79,0,0,0,.57-0.29Z"/><path class="cls-1" d="M78.88,32.83V32.54a1.56,1.56,0,0,1-1.1.4,1.26,1.26,0,0,1-1.23-.68,2.52,2.52,0,0,1-.09-0.83V28.76h1.08v2.48a1.51,1.51,0,0,0,.09.68,0.44,0.44,0,0,0,.38.2,0.8,0.8,0,0,0,.67-0.4v-3h1v4.07H78.88Z"/><path class="cls-1" d="M12.7,9.63A5.71,5.71,0,0,0,9.39,8.55a4.39,4.39,0,0,0-3.52,1.67,8.39,8.39,0,0,0-1.16,5c0,2.64.24,4.12,0.86,5.17a4.36,4.36,0,0,0,4,2.17,5.63,5.63,0,0,0,3.13-.95l0.42-.31,1.67,2.62a8.89,8.89,0,0,1-5.52,1.63A8.74,8.74,0,0,1,2.5,22.87,9.66,9.66,0,0,1,0,15.94a11.68,11.68,0,0,1,1.4-6A9,9,0,0,1,9.33,5.46a9.28,9.28,0,0,1,5,1.33Z"/><path class="cls-1" d="M26.13,21.26l1.43,2.2a8.08,8.08,0,0,1-5.31,2c-4,0-6.66-2.86-6.66-7.29,0-2.53.52-4.21,1.76-5.59a5.54,5.54,0,0,1,4.43-1.9,5.76,5.76,0,0,1,4.07,1.49c1.29,1.32,1.87,3.22,1.87,6.16v0.85H19.58v0.11c0,2.17,1.07,3.41,3,3.41a5.51,5.51,0,0,0,3.58-1.4m-6.49-4.82H23.9V16.28a3.63,3.63,0,0,0-.44-2.12,1.78,1.78,0,0,0-1.62-.83c-1.4,0-2.2,1.1-2.2,3.06v0.05Z"/><path class="cls-1" d="M32.8,10.77l0.35,1.55a12.41,12.41,0,0,1,1.62-1,5.79,5.79,0,0,1,2.53-.61,3.5,3.5,0,0,1,3.38,2,5.69,5.69,0,0,1,.28,2V25H37.33V15.84c0-1.6-.28-2.06-1.24-2.06A4.3,4.3,0,0,0,33.53,15V25H29.84V10.77h3Z"/><path class="cls-1" d="M33.15,10.77v1.55a12.41,12.41,0,0,1,1.62-1,5.79,5.79,0,0,1,2.53-.61,3.5,3.5,0,0,1,3.38,2,5.66,5.66,0,0,1,.28,2V25H37.33V15.84c0-1.6-.28-2.06-1.24-2.06A4.3,4.3,0,0,0,33.53,15V25H29.84V10.77h3.31Z"/><path class="cls-1" d="M52.46,14.32a7.47,7.47,0,0,0-3.47-1,1.53,1.53,0,0,0-1.79,1.38c0,0.72.47,1.1,1.76,1.43l1.71,0.44a4.38,4.38,0,0,1,2.8,1.6,3.72,3.72,0,0,1,.77,2.39c0,2.92-2.42,4.9-6,4.9a12.38,12.38,0,0,1-5.54-1.54l1.16-2.78a10.3,10.3,0,0,0,4.68,1.6,1.73,1.73,0,0,0,1.87-1.6c0-1-.69-1.46-2.17-1.73l-1.65-.3A5,5,0,0,1,44,17.65a4.26,4.26,0,0,1-.8-2.53c0-2.75,2.18-4.59,5.45-4.59a10.33,10.33,0,0,1,4.82,1.21Z"/><path class="cls-1" d="M64.05,25V23.45a12.5,12.5,0,0,1-1.62,1,5.82,5.82,0,0,1-2.53.61,3.5,3.5,0,0,1-3.39-2,5.69,5.69,0,0,1-.27-2V10.76h3.63v9.16c0,1.6.28,2.06,1.24,2.06a4.31,4.31,0,0,0,2.56-1.27v-10h3.69V25H64.05Z"/><path class="cls-1" d="M22.72,1.48V5.18c0,2-1,3.16-2.81,3.16s-2.75-1.17-2.75-3.18V1.48H16.31v-1h2.83v1H18.31V5.27c0,1.34.55,2.06,1.62,2.06s1.64-.7,1.64-2V1.48H20.73v-1h2.83v1H22.72"/><path class="cls-1" d="M27.2,8.22V7.31h0.67V4.67c0-1.1-.35-1.42-0.94-1.42A1.53,1.53,0,0,0,25.67,4V7.31h0.68V8.22H23.86V7.31h0.67v-4H23.86V2.44h1.81V3a1.9,1.9,0,0,1,1.54-.72c1.16,0,1.8.65,1.8,2.28V7.31h0.68V8.22H27.2"/><path class="cls-1" d="M31.51,1.47A0.74,0.74,0,0,1,30.76.74a0.73,0.73,0,1,1,1.47,0,0.73,0.73,0,0,1-.73.73M30.34,8.22V7.31h0.71v-4H30.34V2.44h1.85V7.31H32.9V8.22H30.34Z"/><path class="cls-1" d="M36.45,8.08a2.2,2.2,0,0,1-1.07.26,1.27,1.27,0,0,1-1.24-1.53V3.35H33.35V2.44h0.78V0.78l1.13-.6V2.44h1.3V3.35h-1.3V6.7c0,0.54.14,0.69,0.54,0.69a1.31,1.31,0,0,0,.35-0.05Z"/><path class="cls-1" d="M41.82,5.73H38.24c0.09,1,.52,1.64,1.43,1.64a2.28,2.28,0,0,0,1.55-.56l0.49,0.78a3.11,3.11,0,0,1-2.1.76c-1.42,0-2.48-1.09-2.48-3s1-3,2.4-3,2.31,1.34,2.31,2.9c0,0.21,0,.39,0,0.51M39.47,3.26c-0.75,0-1.14.55-1.22,1.57h2.46C40.65,4,40.35,3.26,39.47,3.26"/><path class="cls-1" d="M46.23,8.22V7.61a1.76,1.76,0,0,1-1.43.73c-1.23,0-2.11-.9-2.11-3.1,0-2,1-2.92,2.06-2.92A1.92,1.92,0,0,1,46.23,3V1H45.54V0.06h1.81V7.31H48V8.22H46.23m0-4.21A1.71,1.71,0,0,0,45,3.26c-0.76,0-1.16.66-1.16,1.94,0,1.61.45,2.21,1.21,2.21a1.54,1.54,0,0,0,1.21-.74V4Z"/><path class="cls-1" d="M54.25,8.34a2.09,2.09,0,0,1-1.67-.75V8.22h-1V5.86h0.94a1.7,1.7,0,0,0,1.71,1.49,1.11,1.11,0,0,0,1.3-1.16c0-.67-0.21-1-1.61-1.41s-2.28-.92-2.28-2.3a2,2,0,0,1,2.2-2.1,1.77,1.77,0,0,1,1.62.75V0.51h1V2.87H55.51a1.54,1.54,0,0,0-1.6-1.49,1,1,0,0,0-1.11,1c0,0.64.42,1,1.56,1.31,1.54,0.44,2.34,1,2.34,2.35a2.17,2.17,0,0,1-2.45,2.28"/><path class="cls-1" d="M64.54,8.22V7.59A1.92,1.92,0,0,1,63,8.34a1.71,1.71,0,0,1-1.85-1.93,1.86,1.86,0,0,1,2.14-1.9,2.7,2.7,0,0,1,1.28.28V4.25a0.92,0.92,0,0,0-1-1,2.67,2.67,0,0,0-1.43.36l-0.42-.8a3.41,3.41,0,0,1,1.92-.52,1.84,1.84,0,0,1,2.08,1.94V7.31h0.63V8.22H64.54m0-2.54a2.56,2.56,0,0,0-1.28-.25,1,1,0,0,0-1.06,1,0.87,0.87,0,0,0,1,1,1.73,1.73,0,0,0,1.36-.73v-1Z"/><path class="cls-1" d="M75,5.73H71.46c0.09,1,.53,1.64,1.43,1.64a2.29,2.29,0,0,0,1.56-.56l0.49,0.78a3.13,3.13,0,0,1-2.11.76c-1.42,0-2.48-1.09-2.48-3s1-3,2.4-3,2.32,1.34,2.32,2.9c0,0.21,0,.39,0,0.51M72.68,3.26c-0.75,0-1.13.55-1.21,1.57h2.46C73.87,4,73.56,3.26,72.68,3.26"/><path class="cls-1" d="M78.23,8.31a1.51,1.51,0,0,1-1.31-.55V8.22H76V6.42h0.78a1.46,1.46,0,0,0,1.37,1,0.65,0.65,0,0,0,.73-0.67c0-.43-0.19-0.67-1-0.9C76.51,5.42,76,5,76,4a1.61,1.61,0,0,1,1.77-1.61A1.57,1.57,0,0,1,79,2.79V2.44h0.88V4.25H79.1a1.29,1.29,0,0,0-1.24-1,0.61,0.61,0,0,0-.7.64c0,0.35.13,0.6,1,.87C79.51,5.16,80,5.55,80,6.65a1.67,1.67,0,0,1-1.8,1.66"/><path class="cls-1" d="M64,32.83V32.54a1.56,1.56,0,0,1-1.1.4,1.26,1.26,0,0,1-1.23-.68,2.49,2.49,0,0,1-.09-0.83V28.76h1.07v2.48a1.5,1.5,0,0,0,.09.68,0.44,0.44,0,0,0,.38.2,0.81,0.81,0,0,0,.68-0.4v-3h1v4.07H64Z"/><path class="cls-1" d="M78.88,14.32a7.48,7.48,0,0,0-3.47-1,1.53,1.53,0,0,0-1.79,1.38c0,0.72.47,1.1,1.76,1.43l1.71,0.44a4.38,4.38,0,0,1,2.81,1.6,3.73,3.73,0,0,1,.77,2.39c0,2.92-2.42,4.9-6,4.9A12.37,12.37,0,0,1,69.1,23.9l1.16-2.78a10.31,10.31,0,0,0,4.68,1.6,1.73,1.73,0,0,0,1.87-1.6c0-1-.69-1.46-2.17-1.73L73,19.08a5,5,0,0,1-2.59-1.43,4.27,4.27,0,0,1-.8-2.53c0-2.75,2.17-4.59,5.45-4.59a10.31,10.31,0,0,1,4.81,1.21Z"/><path class="cls-1" d="M2.12,29.05H52.28a1.89,1.89,0,1,1,0,3.78H2.12a1.89,1.89,0,1,1,0-3.78"/><path class="cls-1" d="M60.43,8.08a2.2,2.2,0,0,1-1.07.26,1.27,1.27,0,0,1-1.24-1.53V3.35H57.33V2.44h0.78V0.78l1.13-.6V2.44h1.3V3.35h-1.3V6.7c0,0.54.14,0.69,0.54,0.69a1.31,1.31,0,0,0,.35-0.05Z"/><path class="cls-1" d="M69.65,8.08a2.19,2.19,0,0,1-1.07.26,1.27,1.27,0,0,1-1.24-1.53V3.35H66.56V2.44h0.78V0.78l1.13-.6V2.44h1.3V3.35h-1.3V6.7c0,0.54.14,0.69,0.54,0.69a1.31,1.31,0,0,0,.35-0.05Z"/><polygon class="cls-1" points="81.72 3.3 81.72 1.89 81.19 1.89 81.19 1.7 82.46 1.7 82.46 1.89 81.93 1.89 81.93 3.3 81.72 3.3"/><path class="cls-1" d="M82.67,3.3V1.7H83l0.38,1.13,0.08,0.24,0.09-.26L83.91,1.7H84.2V3.3H84V2L83.53,3.3H83.34L82.88,1.94V3.3h-0.2Z"/></svg>